<?xml version="1.0" encoding="UTF-8"?>
<svg id="Layer_1" data-name="Layer 1" xmlns="http://www.w3.org/2000/svg" viewBox="0 0 1298.09 170.02">
  <defs>
    <style>
      .cls-1 {
        fill: #00fcaa;
      }

      .cls-1, .cls-2, .cls-3 {
        stroke-width: 0px;
      }

      .cls-2 {
        fill-rule: evenodd;
      }

      .cls-2, .cls-3 {
        fill: #020622;
      }
    </style>
  </defs>
  <path class="cls-2" d="M832.34,116.64v-45.22h76.84v-23.64h-76.84V12.31h-23.64v104.33c0,40.35,44.87,64.51,78.55,42.29l24.71-17.01v-27.6l-37.72,24.88c-17.96,11.85-41.89-1.04-41.89-22.56Z"/>
  <path class="cls-3" d="M777.64,88.84c-.03-3.59-.47-7.12-1.31-10.61-1.44-5.9-4.07-11.21-7.96-15.88-3.21-3.85-7-7.03-11.25-9.68-4.75-2.97-9.9-5.04-15.31-6.45-3.78-.98-7.63-1.64-11.52-2.01-3.57-.34-7.15-.55-10.74-.5-1.92.02-3.85.16-5.77.2-1.82.04-3.63.24-5.44.44-3.09.34-6.15.83-9.17,1.53-4.23.98-8.34,2.3-12.28,4.16-5.82,2.76-10.92,6.5-15.24,11.27-4.98,5.52-7.93,11.97-8.88,19.32-.03.27-.04.53-.04.8,0,.17.22.43.38.44.37.02.75.04,1.12.04h22.47c1.57,0,1.37.06,1.91-1.37,1.55-4.07,4.18-7.27,7.81-9.68,2.16-1.43,4.5-2.46,6.95-3.26,4.15-1.35,8.44-1.96,12.78-2.18,3.63-.19,7.27-.21,10.9.2,2.77.31,5.49.83,8.16,1.67,3.61,1.14,6.87,2.93,9.77,5.36,3.44,2.87,5.7,6.45,6.75,10.8.68,2.78.67,5.6.61,8.43,0,.38-.23.61-.59.62-.59.02-1.17.02-1.77.02-14.12,0-28.25.01-42.38,0-4.67,0-9.3.27-13.91.98-3.66.56-7.24,1.41-10.73,2.64-5.68,2.02-10.71,5.06-14.94,9.38-4.13,4.21-6.99,9.13-8.55,14.8-.83,3-1.27,6.05-1.4,9.15-.14,3.48.04,6.92.72,10.35,1.15,5.77,3.62,10.9,7.45,15.37,3.65,4.25,8.09,7.42,13.2,9.68,5.67,2.52,11.66,3.82,17.81,4.48,1.33.14,2.67.27,3.99.42.2.02.39.14.59.22h9.95c.49-.27,1.04-.25,1.56-.31,2.44-.3,4.89-.52,7.32-.93,4.45-.75,8.78-1.92,12.95-3.61,3.67-1.49,7.22-3.23,10.53-5.42,2.33-1.54,4.49-3.27,6.39-5.32.14-.16.29-.32.45-.45.12-.09.28-.18.42-.2,1-.12,1.17-.02,1.41.85.01.05.02.11.03.15.67,3.13,1.34,6.26,2.01,9.38.19.88.42,1.77.63,2.65.04.2.24.34.47.35.32.02.64.04.96.04h19.27c.32,0,.64-.03.96-.05.21-.01.42-.2.42-.4.02-.59.04-1.17.04-1.76,0-24.74,0-49.49,0-74.23,0-.64,0-1.28,0-1.92ZM752.24,119.84c-.74,7.6-3.9,13.98-9.75,18.99-3.91,3.35-8.37,5.69-13.28,7.21-3.12.96-6.31,1.6-9.56,1.97-2.82.33-5.65.47-8.48.54-2.25.08-4.49-.11-6.73-.32-3.36-.31-6.66-.95-9.82-2.18-2.11-.82-4.08-1.87-5.81-3.32-2.05-1.71-3.64-3.75-4.58-6.26-.81-2.18-1.1-4.44-.94-6.76.12-1.65.4-3.28.96-4.84,1.15-3.15,3.11-5.69,5.81-7.67,1.96-1.44,4.15-2.4,6.47-3.09,1.8-.53,3.63-.87,5.49-1.11,2.02-.25,4.05-.3,6.08-.3h42.35c.53,0,1.06.03,1.6.08.08,0,.19.12.23.2.05.15.07.31.08.47.04,2.13.08,4.27-.13,6.39Z"/>
  <path class="cls-3" d="M1199.91,130.66v5.12c-.18.66-.29,1.33-.3,2.02-.02.8-.11,1.59-.27,2.38-.76,3.64-2.16,7-4.19,10.11-1.87,2.88-4.19,5.37-6.8,7.59-3.78,3.22-8.05,5.59-12.69,7.33-6.23,2.34-12.73,3.53-19.34,4.16-1.59.15-3.19.28-4.78.43-.26.02-.5.14-.76.22h-11.87c-.31-.08-.62-.2-.93-.23-1.65-.16-3.31-.28-4.95-.43-6.73-.64-13.35-1.83-19.73-4.13-2.53-.91-4.97-1.97-7.32-3.25-4.6-2.5-8.64-5.7-12.03-9.71-3.18-3.78-5.4-8.05-6.55-12.86-.53-2.24-.86-4.5-.87-6.8,0-.27.03-.52.06-.79.03-.19.19-.28.33-.3.32-.05.64-.07.96-.07,1.39,0,2.78,0,4.17,0h17.98c1.74.02,1.63-.12,1.81,1.62.22,2.07,1,3.91,2.2,5.6.71,1.01,1.55,1.9,2.49,2.7,1.6,1.36,3.35,2.48,5.27,3.33,2.26,1,4.6,1.74,7,2.27,3.3.73,6.63,1.17,10,1.35,2.19.12,4.38.22,6.57.22,2.47,0,4.93-.15,7.38-.34,3.04-.24,6.05-.71,9-1.51,2.44-.67,4.77-1.61,6.91-2.95,1.27-.8,2.46-1.7,3.48-2.8,1.22-1.32,2.11-2.81,2.56-4.56.04-.15.1-.3.12-.46.36-2.36.21-4.69-.68-6.92-.73-1.82-1.92-3.31-3.49-4.5-1.33-1.01-2.77-1.81-4.29-2.49-2.11-.93-4.3-1.61-6.53-2.17-2.9-.73-5.85-1.27-8.82-1.69-1.75-.25-3.48-.54-5.23-.8-1.69-.26-3.39-.51-5.07-.77-1.79-.27-3.6-.55-5.39-.82-1.75-.27-3.49-.53-5.24-.79-6.14-.92-12.18-2.25-18.01-4.45-3.57-1.35-6.97-3-10.13-5.15-2.76-1.88-5.21-4.08-7.26-6.71-2.6-3.34-4.32-7.09-5.22-11.22-.67-3.05-.84-6.12-.71-9.22.14-3.22.74-6.34,1.86-9.37,1.37-3.7,3.44-6.97,6.12-9.87,3.43-3.74,7.5-6.66,12.05-8.89,3.47-1.7,7.11-2.94,10.86-3.87,3.06-.76,6.16-1.31,9.3-1.69,5.21-.63,10.45-.91,15.69-.8,3.11.06,6.2.23,9.29.59,6.56.76,12.96,2.19,19.08,4.73,4.12,1.71,8.02,3.8,11.57,6.5,3.79,2.88,6.91,6.36,9.38,10.42,2,3.27,3.31,6.8,3.96,10.58.25,1.47.45,2.95.41,4.45,0,.21-.04.43-.09.62-.02.09-.14.2-.22.21-.36.05-.73.09-1.1.09h-22.16c-.37,0-.74-.04-1.11-.09-.09-.01-.18-.12-.22-.2-.07-.14-.1-.3-.12-.46-.32-2.99-1.66-5.48-3.76-7.59-1.05-1.07-2.24-1.98-3.49-2.8-3.31-2.16-6.93-3.56-10.77-4.43-2.35-.53-4.73-.85-7.13-1.06-2.94-.26-5.88-.28-8.83-.17-3.52.13-7.04.45-10.51,1.2-2.35.51-4.66,1.19-6.83,2.24-1.41.67-2.73,1.48-3.92,2.48-1.76,1.48-3.05,3.28-3.69,5.51-.68,2.38-.62,4.75.2,7.08.86,2.4,2.48,4.21,4.66,5.52,1.28.77,2.67,1.34,4.08,1.85,2.32.83,4.7,1.44,7.11,1.93,2.62.54,5.27.92,7.91,1.3,2.49.36,4.97.77,7.46,1.14,2.48.37,4.98.71,7.46,1.1,3.69.57,7.41,1.08,11.06,1.87,4.92,1.07,9.74,2.46,14.36,4.48,3.95,1.72,7.59,3.9,10.91,6.65,5.17,4.3,8.38,9.73,9.72,16.3.19.95.29,1.9.31,2.86,0,.69.12,1.36.3,2.02v-.02Z"/>
  <path class="cls-3" d="M150.94,114.01c.54-.01,1.07,0,1.61,0h92.14c3.36,0,6.72,0,10.08,0v-36.54c-2.04-4.53-4.7-8.7-7.77-12.63-2.62-3.33-5.6-6.31-8.91-8.96-5.81-4.65-12.27-8.14-19.29-10.62-5.32-1.87-10.79-3.03-16.41-3.6-2.78-.28-5.55-.43-8.33-.45-4.28-.03-8.56.26-12.79.9-4.39.67-8.71,1.7-12.92,3.14-8.44,2.9-16.09,7.18-22.76,13.12-7.19,6.39-12.62,14.03-16.24,22.92-2.83,6.95-4.08,14.23-4.23,21.7-.1,4.54.31,9.05,1.17,13.52,1.05,5.43,2.8,10.62,5.36,15.51,7.03,13.38,17.51,23.14,31.29,29.36,6.52,2.95,13.38,4.74,20.51,5.5,3.62.39,7.25.6,10.9.47,3.47-.13,6.94-.32,10.39-.79,3.77-.51,7.49-1.24,11.14-2.29,6.59-1.9,12.68-4.8,18.2-8.88,1.67-1.24,3.32-2.52,4.89-3.88,6.41-5.57,11.57-12.1,15.39-19.68.16-.31.29-.57.39-.78v-.85c-.24-.09-.71-.08-1.49-.08h-23.28c-2,0-1.51-.19-2.82,1.32-3.87,4.48-8.55,7.86-14.01,10.18-5.32,2.27-10.91,3.36-16.66,3.75-1.6.11-3.21.12-4.81.13-2.73,0-5.45-.2-8.15-.66-6.04-1.03-11.61-3.23-16.75-6.55-3.21-2.07-6.03-4.59-8.52-7.49-3.82-4.46-6.37-9.57-7.81-15.24-.12-.46-.28-.92-.14-1.45.19-.03.4-.09.6-.1h0ZM150.5,92.47c1.75-6.79,5.2-12.57,10.33-17.36,5.42-5.05,11.74-8.48,18.91-10.37,2.48-.65,5.01-1.08,7.56-1.37,3.52-.39,7.05-.44,10.58-.17,6.97.53,13.53,2.48,19.59,6.02,4.58,2.69,8.42,6.2,11.52,10.49,2.7,3.75,4.43,7.89,5.13,12.45.07.41.09.85.12,1.27.03.38-.18.62-.53.64-.32.02-.64.03-.96.03-1.01,0-2.03,0-3.05,0h-77.99c-1.66.03-1.6-.11-1.21-1.64Z"/>
  <path class="cls-3" d="M959.86,113.18c.53-.02,1.06-.01,1.6-.01h102.22v-36.55c-2.05-4.53-4.7-8.7-7.77-12.63-2.61-3.33-5.6-6.31-8.91-8.95-5.81-4.65-12.27-8.14-19.28-10.62-5.32-1.87-10.79-3.03-16.41-3.6-2.77-.28-5.55-.43-8.32-.45-4.28-.03-8.56.26-12.8.91-4.39.67-8.7,1.7-12.92,3.14-8.43,2.9-16.09,7.18-22.76,13.12-7.19,6.39-12.62,14.03-16.24,22.92-2.83,6.95-4.07,14.23-4.23,21.7-.09,4.54.31,9.05,1.17,13.52,1.05,5.43,2.8,10.62,5.37,15.51,7.02,13.38,17.5,23.13,31.29,29.36,6.53,2.95,13.38,4.74,20.51,5.5,3.62.39,7.25.6,10.89.47,3.47-.13,6.95-.32,10.39-.78,3.78-.51,7.49-1.24,11.14-2.29,6.59-1.9,12.69-4.8,18.2-8.88,1.68-1.24,3.32-2.52,4.89-3.89,6.41-5.57,11.58-12.1,15.41-19.68.15-.32.28-.57.38-.79v-.85c-.24-.09-.71-.08-1.49-.08h-23.28c-2.01,0-1.5-.19-2.83,1.32-3.87,4.48-8.55,7.86-14.01,10.18-5.32,2.27-10.9,3.36-16.65,3.75-1.6.11-3.21.12-4.81.13-2.73,0-5.45-.2-8.14-.66-6.06-1.03-11.61-3.23-16.76-6.55-3.21-2.07-6.04-4.59-8.52-7.48-3.82-4.47-6.37-9.57-7.81-15.25-.11-.45-.28-.92-.14-1.45.19-.03.4-.09.61-.09ZM959.41,91.64c1.75-6.79,5.2-12.57,10.33-17.36,5.42-5.05,11.74-8.48,18.91-10.37,2.49-.65,5.02-1.08,7.56-1.37,3.53-.39,7.06-.44,10.58-.17,6.97.53,13.53,2.48,19.58,6.03,4.58,2.69,8.42,6.19,11.53,10.48,2.7,3.75,4.43,7.89,5.13,12.45.07.42.09.85.12,1.27.03.38-.18.62-.53.64-.33.02-.65.03-.96.03-1.01,0-2.04,0-3.05,0h-77.99c-1.66.03-1.61-.11-1.21-1.64Z"/>
  <path class="cls-3" d="M434.64,166.02V45.56h21.85l2.88,12.45h1.44c3.04-3.83,7.8-7.31,14.28-10.42,6.48-3.11,13.08-4.67,19.81-4.67,9.28,0,17.17,1.92,23.65,5.75,6.48,3.83,11.4,8.3,14.77,13.41h1.44c4-5.27,9.68-9.78,17.04-13.53,7.36-3.75,16.16-5.63,26.41-5.63,9.6,0,18.16,2.12,25.69,6.34,7.52,4.23,13.4,10.17,17.65,17.84,4.24,7.67,6.36,16.44,6.36,26.34v72.56h-24.97v-70.17c0-8.78-2.64-15.84-7.92-21.19-5.28-5.34-12.17-8.02-20.64-8.02-5.28,0-10.24,1.28-14.88,3.83-4.64,2.55-8.41,6.07-11.28,10.53-2.88,4.47-4.32,9.42-4.32,14.84v70.17h-24.97v-70.17c0-8.78-2.64-15.84-7.92-21.19-5.28-5.34-12.17-8.02-20.64-8.02-5.28,0-10.28,1.28-15,3.83-4.72,2.55-8.48,6.07-11.29,10.53-2.8,4.47-4.2,9.42-4.2,14.84v70.17h-25.21v.03Z"/>
  <path class="cls-3" d="M308.23,0h-25.6v166.63h25.6V0Z"/>
  <g>
    <polygon class="cls-1" points="403.9 45.78 369.77 45.78 321.35 92.58 321.35 119.86 369.77 166.62 403.9 166.62 341.36 106.23 403.9 45.78"/>
    <polygon class="cls-3" points="308.23 105.26 307.23 106.23 308.23 107.2 308.23 105.26"/>
  </g>
  <polygon class="cls-1" points="1215.54 166.62 1249.67 166.62 1298.09 119.82 1298.09 92.54 1249.67 45.78 1215.54 45.78 1278.08 106.17 1215.54 166.62"/>
  <path class="cls-2" d="M23.64,116.64v-45.22h76.84v-23.64H23.64V12.31H0v104.33c0,40.35,44.87,64.51,78.55,42.29l24.71-17.01v-27.6l-37.72,24.88c-17.96,11.85-41.89-1.04-41.89-22.56Z"/>
</svg>